<?xml version="1.0" encoding="UTF-8" standalone="no"?>
<svg
   version="1.1"
   id="Layer_1"
   x="0px"
   y="0px"
   width="466.0881"
   viewBox="0 0 466.0881 458.49374"
   enable-background="new 0 0 1024 1024"
   xml:space="preserve"
   height="458.49374"
   xmlns="http://www.w3.org/2000/svg"
   xmlns:svg="http://www.w3.org/2000/svg"><defs
   id="defs9" />
<path
   fill="#000000"
   opacity="1"
   stroke="none"
   d="M 17.91153,261.52425 C 11.88339,236.24197 5.95306,211.36416 0,186.39098 c 1.23651,-0.51443 1.80862,-0.94763 2.39578,-0.96902 55.48911,-2.02228 106.43195,11.0014 150.20187,46.49811 28.23246,22.89605 46.405,52.91662 58.40924,86.81012 10.26664,28.9873 15.81601,59.06262 19.3483,89.53906 0.87244,7.5274 1.67511,15.06293 3.04871,22.61987 1.10901,-9.7857 2.02606,-19.59759 3.35992,-29.35254 6.12372,-44.78497 15.52222,-88.57171 39.88355,-127.66119 17.16546,-27.54327 40.63025,-48.19 69.1521,-63.41083 36.88177,-19.68216 76.50818,-26.27783 117.79773,-25.22925 0.63855,0.0162 1.27136,0.258 1.81231,0.37421 1.43183,2.14642 0.22016,4.08279 -0.21417,5.89972 -14.69696,61.47076 -29.47028,122.92322 -44.21539,184.38251 -1.62946,6.79168 -3.29273,13.58044 -4.67633,20.42389 -0.75299,3.72479 -2.55518,4.71099 -6.28736,4.37725 -65.41125,-5.84784 -123.79296,10.40235 -172.71753,55.63691 -3.66656,3.38995 -5.61392,2.43005 -8.58102,-0.35553 -27.86417,-26.15985 -60.58426,-43.29737 -97.85327,-51.43573 -24.8548,-5.42743 -50.03189,-7.47504 -75.39758,-3.88703 -4.59937,0.6507 -4.77677,-2.39978 -5.46619,-5.28039 C 43.22516,367.06087 36.4779,338.74392 29.69848,310.43459 25.82516,294.26046 21.90719,278.09695 17.91153,261.52425 Z"
   id="path1"
   style="fill:#0d0015;fill-opacity:1" />
<path
   fill="#000000"
   opacity="1"
   stroke="none"
   d="m 231.01416,77.62099 c -0.0102,4.3317 -0.13959,8.1684 0.0115,11.99402 0.20181,5.11057 0.0141,9.37238 -5.44912,12.61744 -5.07428,3.01403 -4.67856,11.66409 -0.33954,15.94076 4.54461,4.47943 12.32574,4.16928 16.50177,-0.65768 4.26452,-4.92929 3.88318,-13.07557 -1.57099,-16.30237 -4.0672,-2.40622 -4.5755,-5.36063 -4.60248,-9.39813 -0.1889,-28.31696 -0.53613,-56.63282 -0.80194,-84.94934 -0.0192,-2.05524 -0.33111,-4.20408 0.66852,-6.45481 2.41791,1.14877 2.31702,3.21021 2.81421,4.78305 8.97022,28.37708 20.40235,55.62979 36.63257,80.70709 1.71912,2.65613 3.1048,5.70697 5.36285,7.80054 5.85682,5.42993 5.32459,10.75809 2.33088,17.7175 -8.83094,20.52933 -15.383,41.83514 -18.58106,64.04822 -0.44171,3.06833 -2.0636,4.22345 -5.04077,4.22107 -17.15967,-0.0136 -34.31937,0.028 -51.47898,0.0835 -3.03646,0.01 -4.33599,-1.36178 -4.83688,-4.41375 -3.95678,-24.10932 -11.366,-47.20044 -20.95822,-69.62037 -1.03406,-2.4169 -1.57245,-4.44265 0.29678,-6.9121 C 203.34799,70.58753 217.93908,39.01236 227.82415,5.13382 228.2872,3.54676 228.18029,1.49185 231.0198,0 c 0,26.14594 0,51.63352 -0.006,77.62097 z"
   id="path2"
   style="fill:#d7003a;fill-opacity:1" />
<path
   fill="#000000"
   opacity="1"
   stroke="none"
   d="m 284.52041,215.15511 c 31.63062,-41.33032 73.07959,-67.40158 122.1905,-82.04232 2.69488,-0.80338 5.43847,-2.28223 6.61462,2.19091 1.90399,7.24143 1.76166,7.97376 -3.47174,9.4184 -33.34436,9.20456 -63.75952,24.17941 -90.48273,46.28287 -34.33197,28.39682 -56.37738,64.76471 -69.03784,107.15075 -5.29926,17.74134 -8.46051,35.91126 -10.86078,54.23426 -0.11871,0.90625 -0.43817,1.78619 -1.29266,2.47088 1.80145,-50.94 14.69214,-98.23199 46.34063,-139.70575 z"
   id="path3"
   style="fill:#0d0015;fill-opacity:1" />
<path
   fill="#000000"
   opacity="1"
   stroke="none"
   d="m 69.52688,135.94753 c 34.44406,11.75043 65.08515,29.17835 90.79001,54.57413 34.99198,34.5712 56.43103,76.22702 64.13941,124.88864 1.95242,12.32538 3.77734,24.65412 3.97723,37.16132 0.0146,0.91363 0.59174,1.98913 -1.14557,2.94159 -1.20618,-7.96656 -2.28955,-15.73914 -3.5701,-23.47913 -8.31967,-50.28631 -27.85501,-95.11084 -64.99322,-131.01367 -27.76596,-26.84244 -61.04016,-44.23877 -97.90747,-55.03668 -10.52741,-3.08332 -10.56556,-2.95307 -6.35434,-13.82492 5.14181,-0.0859 9.75757,2.51281 15.06405,3.78872 z"
   id="path4"
   style="fill:#0d0015;fill-opacity:1" />
<path
   fill="#000000"
   opacity="1"
   stroke="none"
   d="m 302.28116,224.8912 c 32.59704,-34.95569 73.29528,-53.99106 119.04962,-63.52371 3.41705,-0.71189 6.87915,-1.21451 10.2832,-1.97974 4.34052,-0.97583 7.49658,-0.15491 8.5658,4.76099 0.37841,1.73953 1.67981,3.24435 1.43133,6.00216 -69.32281,8.46909 -128.16211,35.82416 -168.03949,96.26953 6.70801,-15.70978 17.09137,-28.82983 28.70954,-41.52923 z"
   id="path5"
   style="fill:#0d0015;fill-opacity:1" />
<path
   fill="#000000"
   opacity="1"
   stroke="none"
   d="m 61.931,176.88512 c -10.89417,-2.78817 -21.56168,-4.57171 -32.29599,-5.83944 -4.23297,-0.49997 -5.62149,-1.74424 -4.0008,-6.02194 2.46692,-6.51123 2.42688,-6.69837 9.26603,-5.54981 40.09191,6.73282 77.07867,20.78995 108.98953,46.60626 17.90146,14.48252 33.00534,31.47483 44.84744,51.28086 0.72257,1.20849 1.93146,2.34149 1.12247,5.06488 C 158.3666,216.83019 114.98465,189.88345 61.931,176.88512 Z"
   id="path6"
   style="fill:#0d0015;fill-opacity:1" />
<path
   fill="#000000"
   opacity="1"
   stroke="none"
   d="m 214.03158,200.6144 c -5.32303,-0.071 -10.17575,0.15857 -14.96368,-0.29504 -5.32749,-0.50473 -8.48969,-4.0343 -8.18713,-8.28092 0.32315,-4.53497 3.63381,-7.11169 9.19335,-7.03833 21.14185,0.279 42.27979,0.66687 63.42011,-0.31927 8.37347,-0.3906 11.84955,2.20413 11.87488,7.90823 0.0172,3.86948 -1.87348,6.22858 -5.45905,7.3975 -2.41968,0.78878 -4.91565,0.78539 -7.41748,0.77706 -15.98736,-0.0532 -31.97476,-0.10064 -48.461,-0.14923 z"
   id="path7" />
<path
   fill="#000000"
   opacity="1"
   stroke="none"
   d="m 259.72525,218.55938 c -0.17981,-3.45273 -0.27869,-6.4483 -0.54804,-9.42847 -0.21814,-2.41211 -0.0732,-4.42782 3.04407,-4.52139 2.6084,-0.0783 5.10156,-0.15176 5.24512,3.57816 0.13428,3.48941 0.78161,6.96786 0.77771,10.45068 -0.003,2.46753 1.52545,5.96469 -3.29358,6.26907 -4.5365,0.28656 -5.38886,-2.23358 -5.22528,-6.34805 z"
   id="path8" />
<path
   fill="#000000"
   opacity="1"
   stroke="none"
   d="m 199.52194,207.41164 c 1.11313,-3.54861 3.63864,-3.01812 5.84412,-2.53604 2.41128,0.52707 1.94204,2.75427 1.96335,4.508 0.0482,3.97171 -0.18693,7.91559 -0.76945,11.86654 -0.47705,3.23584 -2.47753,3.48725 -4.98214,3.31965 -2.82212,-0.18891 -3.53037,-1.77008 -3.21924,-4.39713 0.48514,-4.09646 0.72314,-8.22217 1.16336,-12.76102 z"
   id="path9" />
</svg>
